<svg xmlns="http://www.w3.org/2000/svg" viewBox="0 0 112 112" role="img" aria-label="Charmander sample">
  <rect width="112" height="112" rx="20" fill="#F5F5F0"/>
  <path d="M56 20c18 0 29 14 29 35 0 27-13 43-29 43S27 82 27 55c0-21 11-35 29-35Z" fill="#FF7E14" stroke="#A1223B" stroke-width="4"/>
  <path d="M39 62c1 17 8 27 17 27s16-10 17-27c-5 7-11 10-17 10s-12-3-17-10Z" fill="#F7BA30"/>
  <circle cx="45" cy="49" r="5" fill="#101010"/>
  <circle cx="67" cy="49" r="5" fill="#101010"/>
  <path d="M47 61c4 5 14 5 18 0" fill="none" stroke="#6C3A20" stroke-width="4" stroke-linecap="round"/>
  <path d="M78 77c15 2 20-7 14-18" fill="none" stroke="#FF7E14" stroke-width="12" stroke-linecap="round"/>
  <path d="M92 54c8 4 8 14 0 19-5-4-7-11 0-19Z" fill="#DB0000" stroke="#A1223B" stroke-width="3" stroke-linejoin="round"/>
  <path d="M94 58c4 3 4 8 0 11-3-3-4-7 0-11Z" fill="#FFD500"/>
</svg>
