<svg xmlns="http://www.w3.org/2000/svg" viewBox="0 0 112 112" role="img" aria-label="Dog sample">
  <rect width="112" height="112" rx="20" fill="#F5F5F0"/>
  <path d="M35 43 27 25l22 11c2-1 5-1 7-1s5 0 7 1l22-11-8 18c5 6 8 14 8 23 0 20-13 34-29 34S27 86 27 66c0-9 3-17 8-23Z" fill="#E3A05B" stroke="#6C3A20" stroke-width="4" stroke-linejoin="round"/>
  <path d="M38 47c4-5 10-8 18-8s14 3 18 8c-4 3-10 5-18 5s-14-2-18-5Z" fill="#D9BB7A"/>
  <path d="M36 68c2 10 10 17 20 17s18-7 20-17c-6 5-12 8-20 8s-14-3-20-8Z" fill="#FFFFFF"/>
  <circle cx="45" cy="61" r="4" fill="#101010"/>
  <circle cx="67" cy="61" r="4" fill="#101010"/>
  <path d="M51 70h10l-5 5-5-5Z" fill="#101010"/>
  <path d="M56 75v6M48 82c3 3 6 3 8-1 2 4 5 4 8 1" fill="none" stroke="#6C3A20" stroke-width="3" stroke-linecap="round"/>
  <path d="M76 35c10 6 15 14 14 23-1 6-5 9-10 8 5-6 4-15-4-31Z" fill="#D9BB7A" stroke="#6C3A20" stroke-width="4" stroke-linejoin="round"/>
</svg>
