<svg xmlns="http://www.w3.org/2000/svg" viewBox="0 0 112 112" role="img" aria-label="Squirtle sample">
  <rect width="112" height="112" rx="20" fill="#F5F5F0"/>
  <path d="M56 20c18 0 30 13 30 32 0 28-13 46-30 46S26 80 26 52c0-19 12-32 30-32Z" fill="#1A85E0" stroke="#003987" stroke-width="4"/>
  <path d="M36 64c3 18 10 28 20 28s17-10 20-28c-5 8-12 12-20 12s-15-4-20-12Z" fill="#E3A05B" stroke="#6C3A20" stroke-width="3"/>
  <circle cx="45" cy="50" r="5" fill="#101010"/>
  <circle cx="67" cy="50" r="5" fill="#101010"/>
  <path d="M48 62c4 4 12 4 16 0" fill="none" stroke="#003987" stroke-width="4" stroke-linecap="round"/>
  <path d="M29 73c-9 2-16-3-17-11 8-2 15 2 17 11ZM83 73c9 2 16-3 17-11-8-2-15 2-17 11Z" fill="#1A85E0" stroke="#003987" stroke-width="4" stroke-linejoin="round"/>
  <path d="M77 86c10 5 18 1 22-8-8-2-16 1-22 8Z" fill="#A0A5A9" stroke="#5A5A5A" stroke-width="4" stroke-linejoin="round"/>
  <path d="M82 86c5-3 10-4 15-3" fill="none" stroke="#FFFFFF" stroke-width="3" stroke-linecap="round"/>
</svg>
